<?xml version="1.0" standalone="no"?>
<!DOCTYPE svg PUBLIC "-//W3C//DTD SVG 20010904//EN"
 "http://www.w3.org/TR/2001/REC-SVG-20010904/DTD/svg10.dtd">
<svg version="1.0" xmlns="http://www.w3.org/2000/svg"
 width="910.000000pt" height="980.000000pt" viewBox="0 0 910.000000 980.000000"
 preserveAspectRatio="xMidYMid meet">

<g transform="translate(0.000000,980.000000) scale(0.100000,-0.100000)"
fill="#000000" stroke="none">
<path d="M691 9778 c-5 -13 -162 -407 -350 -876 l-341 -852 0 -3325 0 -3325
1050 0 1050 0 0 -700 0 -700 698 0 697 0 700 700 700 700 875 0 875 0 1228
1228 1227 1227 0 2973 0 2972 -4200 0 -4200 0 -9 -22z m7359 -3300 l0 -2273
-702 -702 -703 -703 -1050 0 -1050 0 -697 -697 -698 -698 0 698 0 697 -875 0
-875 0 0 2975 0 2975 3325 0 3325 0 0 -2272z"/>
<path d="M3500 5960 l0 -1410 525 0 525 0 0 1410 0 1410 -525 0 -525 0 0
-1410z"/>
<path d="M5950 5960 l0 -1410 525 0 525 0 0 1410 0 1410 -525 0 -525 0 0
-1410z"/>
</g>
</svg>
